<svg width="200" height="71" viewBox="0 0 200 71" fill="none" xmlns="http://www.w3.org/2000/svg">
<circle cx="35.5" cy="35.5" r="28" fill="#40B775" stroke="#C99D3E" stroke-width="15"/>
<path d="M83.8182 47V23.7273H86.6364V34.0909H99.0455V23.7273H101.864V47H99.0455V36.5909H86.6364V47H83.8182ZM114.233 47.3636C112.657 47.3636 111.275 46.9886 110.085 46.2386C108.903 45.4886 107.979 44.4394 107.312 43.0909C106.653 41.7424 106.324 40.1667 106.324 38.3636C106.324 36.5455 106.653 34.9583 107.312 33.6023C107.979 32.2462 108.903 31.1932 110.085 30.4432C111.275 29.6932 112.657 29.3182 114.233 29.3182C115.809 29.3182 117.188 29.6932 118.369 30.4432C119.559 31.1932 120.483 32.2462 121.142 33.6023C121.809 34.9583 122.142 36.5455 122.142 38.3636C122.142 40.1667 121.809 41.7424 121.142 43.0909C120.483 44.4394 119.559 45.4886 118.369 46.2386C117.188 46.9886 115.809 47.3636 114.233 47.3636ZM114.233 44.9545C115.43 44.9545 116.415 44.6477 117.188 44.0341C117.96 43.4205 118.532 42.6136 118.903 41.6136C119.275 40.6136 119.46 39.5303 119.46 38.3636C119.46 37.197 119.275 36.1098 118.903 35.1023C118.532 34.0947 117.96 33.2803 117.188 32.6591C116.415 32.0379 115.43 31.7273 114.233 31.7273C113.036 31.7273 112.051 32.0379 111.278 32.6591C110.506 33.2803 109.934 34.0947 109.562 35.1023C109.191 36.1098 109.006 37.197 109.006 38.3636C109.006 39.5303 109.191 40.6136 109.562 41.6136C109.934 42.6136 110.506 43.4205 111.278 44.0341C112.051 44.6477 113.036 44.9545 114.233 44.9545ZM133.827 29.5455V31.8182H124.781V29.5455H133.827ZM127.418 25.3636H130.099V42C130.099 42.7576 130.209 43.3258 130.429 43.7045C130.656 44.0758 130.944 44.3258 131.293 44.4545C131.649 44.5758 132.024 44.6364 132.418 44.6364C132.713 44.6364 132.955 44.6212 133.145 44.5909C133.334 44.553 133.486 44.5227 133.599 44.5L134.145 46.9091C133.963 46.9773 133.709 47.0455 133.384 47.1136C133.058 47.1894 132.645 47.2273 132.145 47.2273C131.387 47.2273 130.645 47.0644 129.918 46.7386C129.198 46.4129 128.599 45.9167 128.122 45.25C127.652 44.5833 127.418 43.7424 127.418 42.7273V25.3636ZM144.991 47.3636C143.31 47.3636 141.859 46.9924 140.639 46.25C139.427 45.5 138.491 44.4545 137.832 43.1136C137.181 41.7652 136.855 40.197 136.855 38.4091C136.855 36.6212 137.181 35.0455 137.832 33.6818C138.491 32.3106 139.408 31.2424 140.582 30.4773C141.764 29.7045 143.143 29.3182 144.719 29.3182C145.628 29.3182 146.526 29.4697 147.412 29.7727C148.298 30.0758 149.105 30.5682 149.832 31.25C150.56 31.9242 151.139 32.8182 151.571 33.9318C152.003 35.0455 152.219 36.4167 152.219 38.0455V39.1818H138.764V36.8636H149.491C149.491 35.8788 149.295 35 148.901 34.2273C148.514 33.4545 147.961 32.8447 147.241 32.3977C146.529 31.9508 145.688 31.7273 144.719 31.7273C143.651 31.7273 142.726 31.9924 141.946 32.5227C141.173 33.0455 140.579 33.7273 140.162 34.5682C139.745 35.4091 139.537 36.3106 139.537 37.2727V38.8182C139.537 40.1364 139.764 41.2538 140.219 42.1705C140.681 43.0795 141.321 43.7727 142.139 44.25C142.957 44.7197 143.908 44.9545 144.991 44.9545C145.696 44.9545 146.332 44.8561 146.901 44.6591C147.476 44.4545 147.973 44.1515 148.389 43.75C148.806 43.3409 149.128 42.8333 149.355 42.2273L151.946 42.9545C151.673 43.8333 151.215 44.6061 150.571 45.2727C149.927 45.9318 149.132 46.447 148.185 46.8182C147.238 47.1818 146.173 47.3636 144.991 47.3636ZM158.98 23.7273V47H156.298V23.7273H158.98ZM166.574 23.7273V47H163.892V23.7273H166.574ZM178.804 47.3636C177.122 47.3636 175.671 46.9924 174.452 46.25C173.24 45.5 172.304 44.4545 171.645 43.1136C170.993 41.7652 170.668 40.197 170.668 38.4091C170.668 36.6212 170.993 35.0455 171.645 33.6818C172.304 32.3106 173.221 31.2424 174.395 30.4773C175.577 29.7045 176.955 29.3182 178.531 29.3182C179.44 29.3182 180.338 29.4697 181.224 29.7727C182.111 30.0758 182.918 30.5682 183.645 31.25C184.372 31.9242 184.952 32.8182 185.384 33.9318C185.815 35.0455 186.031 36.4167 186.031 38.0455V39.1818H172.577V36.8636H183.304C183.304 35.8788 183.107 35 182.713 34.2273C182.327 33.4545 181.774 32.8447 181.054 32.3977C180.342 31.9508 179.501 31.7273 178.531 31.7273C177.463 31.7273 176.539 31.9924 175.759 32.5227C174.986 33.0455 174.391 33.7273 173.974 34.5682C173.558 35.4091 173.349 36.3106 173.349 37.2727V38.8182C173.349 40.1364 173.577 41.2538 174.031 42.1705C174.493 43.0795 175.134 43.7727 175.952 44.25C176.77 44.7197 177.721 44.9545 178.804 44.9545C179.509 44.9545 180.145 44.8561 180.713 44.6591C181.289 44.4545 181.785 44.1515 182.202 43.75C182.618 43.3409 182.94 42.8333 183.168 42.2273L185.759 42.9545C185.486 43.8333 185.027 44.6061 184.384 45.2727C183.74 45.9318 182.944 46.447 181.997 46.8182C181.05 47.1818 179.986 47.3636 178.804 47.3636ZM197.702 29.5455V31.8182H188.656V29.5455H197.702ZM191.293 25.3636H193.974V42C193.974 42.7576 194.084 43.3258 194.304 43.7045C194.531 44.0758 194.819 44.3258 195.168 44.4545C195.524 44.5758 195.899 44.6364 196.293 44.6364C196.588 44.6364 196.83 44.6212 197.02 44.5909C197.209 44.553 197.361 44.5227 197.474 44.5L198.02 46.9091C197.838 46.9773 197.584 47.0455 197.259 47.1136C196.933 47.1894 196.52 47.2273 196.02 47.2273C195.262 47.2273 194.52 47.0644 193.793 46.7386C193.073 46.4129 192.474 45.9167 191.997 45.25C191.527 44.5833 191.293 43.7424 191.293 42.7273V25.3636Z" fill="black"/>
</svg>
